<?xml version="1.0" encoding="UTF-8" standalone="no"?>
<!DOCTYPE svg PUBLIC "-//W3C//DTD SVG 1.1//EN" "http://www.w3.org/Graphics/SVG/1.1/DTD/svg11.dtd">
<svg fill="currentColor" width="100%" height="100%" viewBox="0 0 591 165" version="1.1" xmlns="http://www.w3.org/2000/svg" xmlns:xlink="http://www.w3.org/1999/xlink" xml:space="preserve" xmlns:serif="http://www.serif.com/" style="fill-rule:evenodd;clip-rule:evenodd;stroke-linejoin:round;stroke-miterlimit:2;">
    <g fill="currentColor" transform="matrix(1,0,0,1,-778.795,-730.02)">
        <g fill="currentColor" transform="matrix(4.319,0,0,4.319,-1966.21,-1903)">
            <path d="M635.565,644.636L638.565,647.636L645.965,647.636L648.965,644.636L648.965,636.036L644.165,636.036L644.165,642.536L643.165,643.536L641.365,643.536L640.365,642.536L640.365,614.636L641.365,613.636L643.165,613.636L644.165,614.636L644.165,621.186L648.965,621.186L648.965,612.636L645.965,609.636L638.565,609.636L635.565,612.636L635.565,644.636Z" />
        </g>
        <g transform="matrix(4.319,0,0,4.319,-1966.21,-1903)">
            <path d="M652.765,647.636L657.565,647.636L657.565,631.436L659.615,631.436L662.565,647.636L667.215,647.636L664.215,631.086L666.865,628.436L666.865,612.636L663.865,609.636L652.765,609.636L652.765,647.636ZM661.065,627.536L657.565,627.536L657.565,613.636L661.065,613.636L662.065,614.636L662.065,626.536L661.065,627.536Z" />
        </g>
        <g transform="matrix(4.319,0,0,4.319,-1966.21,-1903)">
            <path d="M680.115,647.636L680.115,635.186L685.915,609.636L680.765,609.636L677.765,628.286L674.765,609.636L669.615,609.636L675.415,635.186L675.415,647.636L680.115,647.636Z" />
        </g>
        <g transform="matrix(4.319,0,0,4.319,-1966.21,-1903)">
            <path d="M689.065,647.636L693.865,647.636L693.865,632.436L699.915,632.436L702.915,629.436L702.915,612.636L699.915,609.636L689.065,609.636L689.065,647.636ZM697.115,628.436L693.865,628.436L693.865,613.636L697.115,613.636L698.115,614.636L698.115,627.436L697.115,628.436Z" />
        </g>
        <g transform="matrix(4.319,0,0,4.319,-1966.21,-1903)">
            <path d="M719.015,613.636L719.015,609.636L705.115,609.636L705.115,613.636L709.665,613.636L709.665,647.636L714.465,647.636L714.465,613.636L719.015,613.636Z" />
        </g>
        <g transform="matrix(4.319,0,0,4.319,-1966.21,-1903)">
            <path d="M722.165,647.636L726.515,647.636L726.515,621.686L732.015,647.636L737.215,647.636L737.215,609.636L732.865,609.636L732.865,635.986L727.365,609.636L722.165,609.636L722.165,647.636Z" />
        </g>
        <g transform="matrix(4.319,0,0,4.319,-1966.21,-1903)">
            <rect x="741.315" y="642.136" width="5" height="5.5" />
        </g>
        <g transform="matrix(4.319,0,0,4.319,-1966.21,-1903)">
            <rect x="750.415" y="609.636" width="4.8" height="38" />
        </g>
        <g transform="matrix(4.319,0,0,4.319,-1966.21,-1903)">
            <path d="M772.265,613.636L772.265,609.636L758.365,609.636L758.365,613.636L762.915,613.636L762.915,647.636L767.715,647.636L767.715,613.636L772.265,613.636Z" />
        </g>
    </g>
</svg>
